<svg width="601" xmlns="http://www.w3.org/2000/svg" height="601" id="screenshot-c7348e08-c694-80e8-8007-ef8a97c03d1b" viewBox="0 0 601 601" xmlns:xlink="http://www.w3.org/1999/xlink" fill="none" version="1.1"><g id="shape-c7348e08-c694-80e8-8007-ef8a97c03d1b"><g class="frame-container-wrapper"><g class="frame-container-blur"><g class="frame-container-shadows"><g fill="none"><g class="fills" id="fills-c7348e08-c694-80e8-8007-ef8a97c03d1b"><rect rx="20" ry="20" x="0" y="0" width="601" height="601" transform="matrix(1.000000, 0.000000, 0.000000, 1.000000, 0.000000, 0.000000)" class="frame-background"/></g><g class="frame-children"><g id="shape-c7348e08-c694-80e8-8007-ef8a86cc6ac0"><g class="frame-container-wrapper"><g class="frame-container-blur"><g class="frame-container-shadows"><g fill="none"><g class="fills" id="fills-c7348e08-c694-80e8-8007-ef8a86cc6ac0"><rect rx="0" ry="0" x="30" y="29.999999999999943" width="541" height="541" transform="matrix(1.000000, 0.000000, 0.000000, 1.000000, 0.000000, 0.000000)" class="frame-background"/></g><g class="frame-children"><g id="shape-c7348e08-c694-80e8-8007-ef86a3f46e0d"><g class="fills" id="fills-c7348e08-c694-80e8-8007-ef86a3f46e0d"><rect rx="50" ry="50" x="30" y="29.999999999999943" transform="matrix(1.000000, 0.000000, 0.000000, 1.000000, 0.000000, 0.000000)" width="541" height="541" style="fill: rgb(255, 255, 255); fill-opacity: 1;"/></g></g><g id="shape-c7348e08-c694-80e8-8007-ef87eb80561e"><g class="fills" id="fills-c7348e08-c694-80e8-8007-ef87eb80561e"><path d="M300,554.9999389648438L300,55"/></g><g id="strokes-c2e2f0e6-1c7e-8033-8007-ef8c47500845-c7348e08-c694-80e8-8007-ef87eb80561e" class="strokes"><g class="stroke-shape"><defs><marker refX="2" fill-opacity="1" orient="auto-start-reverse" id="marker-render-4-line-arrow" viewBox="0 0 3 6" fill="#000000" refY="3" markerWidth="8.5" markerHeight="8.5"><path d="M 0.5 0.5 L 3 3 L 0.5 5.5 L 0 5 L 2 3 L 0 1 z"/></marker><marker refX="3" fill-opacity="1" orient="auto-start-reverse" id="marker-render-4-round" viewBox="0 0 6 6" fill="#000000" refY="3" markerWidth="6" markerHeight="6"><path d="M 3 2.5 A 0.5 0.5 0 0 1 3 3.5 "/></marker></defs><path d="M300,554.9999389648438L300,55" style="fill: none; stroke-width: 10; stroke: rgb(0, 0, 0); stroke-opacity: 1; marker-start: url(&quot;#marker-render-4-round&quot;); marker-end: url(&quot;#marker-render-4-line-arrow&quot;);"/></g></g></g><g id="shape-c7348e08-c694-80e8-8007-ef881dd9b8ad"><g class="fills" id="fills-c7348e08-c694-80e8-8007-ef881dd9b8ad"><path d="M51,300L551,300"/></g><g id="strokes-c2e2f0e6-1c7e-8033-8007-ef8c475122d5-c7348e08-c694-80e8-8007-ef881dd9b8ad" class="strokes"><g class="stroke-shape"><defs><marker refX="2" fill-opacity="1" orient="auto-start-reverse" id="marker-render-5-line-arrow" viewBox="0 0 3 6" fill="#000000" refY="3" markerWidth="8.5" markerHeight="8.5"><path d="M 0.5 0.5 L 3 3 L 0.5 5.5 L 0 5 L 2 3 L 0 1 z"/></marker><marker refX="3" fill-opacity="1" orient="auto-start-reverse" id="marker-render-5-round" viewBox="0 0 6 6" fill="#000000" refY="3" markerWidth="6" markerHeight="6"><path d="M 3 2.5 A 0.5 0.5 0 0 1 3 3.5 "/></marker></defs><path d="M51,300L551,300" style="fill: none; stroke-width: 10; stroke: rgb(0, 0, 0); stroke-opacity: 1; marker-start: url(&quot;#marker-render-5-round&quot;); marker-end: url(&quot;#marker-render-5-line-arrow&quot;);"/></g></g></g><g id="shape-c7348e08-c694-80e8-8007-ef88cb958d1e"><g class="fills" id="fills-c7348e08-c694-80e8-8007-ef88cb958d1e"><path d="M47,246C47,246,113.35101318359375,154.681884765625,169,152C252,148,338,459,439,451C485.672607421875,447.30316162109375,542,382,547,355"/></g><g id="strokes-c2e2f0e6-1c7e-8033-8007-ef8c47514af5-c7348e08-c694-80e8-8007-ef88cb958d1e" class="strokes"><g class="stroke-shape"><path d="M47,246C47,246,113.35101318359375,154.681884765625,169,152C252,148,338,459,439,451C485.672607421875,447.30316162109375,542,382,547,355" style="fill: none; stroke-width: 10; stroke: rgb(0, 142, 255); stroke-opacity: 1; stroke-linecap: round;"/></g></g></g></g></g></g></g></g></g></g></g></g><g id="strokes-c2e2f0e6-1c7e-8033-8007-ef8c475191a3-c7348e08-c694-80e8-8007-ef8a97c03d1b" class="strokes"><g class="inner-stroke-shape" transform="matrix(1.000000, 0.000000, 0.000000, 1.000000, 0.000000, 0.000000)"><defs><clipPath id="inner-stroke-render-1-c7348e08-c694-80e8-8007-ef8a97c03d1b-0"><use href="#stroke-shape-render-1-c7348e08-c694-80e8-8007-ef8a97c03d1b-0"/></clipPath><rect width="601" height="601" class="frame-background" x="0" id="stroke-shape-render-1-c7348e08-c694-80e8-8007-ef8a97c03d1b-0" style="fill: none; stroke-width: 4; stroke: rgb(187, 151, 216); stroke-opacity: 1;" ry="20" rx="20" y="0"/></defs><use href="#stroke-shape-render-1-c7348e08-c694-80e8-8007-ef8a97c03d1b-0" clip-path="url('#inner-stroke-render-1-c7348e08-c694-80e8-8007-ef8a97c03d1b-0')"/></g></g></g></g></g></svg>